<?xml version="1.0" encoding="UTF-8"?>
<svg width="94.871mm" height="23.434mm" version="1.1" viewBox="0 0 336.15858 83.032384" xmlns="http://www.w3.org/2000/svg">
 <g transform="translate(-14.23 -952.83)">
  <g transform="matrix(1.1773 0 0 1.1773 -366.2 -181.34)">
   <path d="m359.88 974.07c0.29592-2.3056-1.625-4.3823-4.2904-4.6382-2.6654-0.256-5.0661 1.4056-5.362 3.7113-0.0394 0.3068-0.0395 0.6165-4.5e-4 0.9234" fill="#d4ff2a"/>
   <path d="m355.06 973.44a24.863 19.662 0 0 0 -24.863 19.661 24.863 19.662 0 0 0 0.0449 1.0127h49.617a24.863 19.662 0 0 0 0.0644 -1.0127 24.863 19.662 0 0 0 -24.863 -19.661z" fill="#f95"/>
   <path d="m329.16 991.48 9.7177 36.414h32.362l9.7177-36.414-6.4724 2.8053-6.4724-2.8053-6.4724 2.8053-6.4907-2.8053-6.4724 2.8053-6.4724-2.8053-6.4724 2.8053-6.4724-2.8053zm12.945 5.6106h3.2454v27.998l-3.2454-27.998zm12.945 0h3.2454l-3.2454 27.998v-27.998zm12.963 0h3.227l-6.4724 27.998 3.2454-27.998z" fill="#dde9af"/>
  </g>
  <g transform="matrix(1.1773 0 0 1.1773 -300.95 -181.34)">
   <path d="m359.88 974.07c0.29592-2.3056-1.625-4.3823-4.2904-4.6382-2.6654-0.256-5.0661 1.4056-5.362 3.7113-0.0394 0.3068-0.0395 0.6165-4.5e-4 0.9234" fill="#f10002"/>
   <path d="m355.06 973.44a24.863 19.662 0 0 0 -24.863 19.661 24.863 19.662 0 0 0 0.0449 1.0127h49.617a24.863 19.662 0 0 0 0.0644 -1.0127 24.863 19.662 0 0 0 -24.863 -19.661z" fill="#fae"/>
   <path d="m329.16 991.48 9.7177 36.414h32.362l9.7177-36.414-6.4724 2.8053-6.4724-2.8053-6.4724 2.8053-6.4907-2.8053-6.4724 2.8053-6.4724-2.8053-6.4724 2.8053-6.4724-2.8053zm12.945 5.6106h3.2454v27.998l-3.2454-27.998zm12.945 0h3.2454l-3.2454 27.998v-27.998zm12.963 0h3.227l-6.4724 27.998 3.2454-27.998z" fill="#fea"/>
  </g>
  <g transform="matrix(1.1773 0 0 1.1773 -235.7 -181.34)">
   <path d="m359.88 974.07c0.29592-2.3056-1.625-4.3823-4.2904-4.6382-2.6654-0.256-5.0661 1.4056-5.362 3.7113-0.0394 0.3068-0.0395 0.6165-4.5e-4 0.9234" fill="#fc0"/>
   <path d="m355.06 973.44a24.863 19.662 0 0 0 -24.863 19.661 24.863 19.662 0 0 0 0.0449 1.0127h49.617a24.863 19.662 0 0 0 0.0644 -1.0127 24.863 19.662 0 0 0 -24.863 -19.661z" fill="#f55"/>
   <path d="m329.16 991.48 9.7177 36.414h32.362l9.7177-36.414-6.4724 2.8053-6.4724-2.8053-6.4724 2.8053-6.4907-2.8053-6.4724 2.8053-6.4724-2.8053-6.4724 2.8053-6.4724-2.8053zm12.945 5.6106h3.2454v27.998l-3.2454-27.998zm12.945 0h3.2454l-3.2454 27.998v-27.998zm12.963 0h3.227l-6.4724 27.998 3.2454-27.998z" fill="#e9c6af"/>
  </g>
  <g transform="matrix(1.1773 0 0 1.1773 -170.44 -181.34)">
   <path d="m359.88 974.07c0.29592-2.3056-1.625-4.3823-4.2904-4.6382-2.6654-0.256-5.0661 1.4056-5.362 3.7113-0.0394 0.3068-0.0395 0.6165-4.5e-4 0.9234" fill="#f55"/>
   <path d="m355.06 973.44a24.863 19.662 0 0 0 -24.863 19.661 24.863 19.662 0 0 0 0.0449 1.0127h49.617a24.863 19.662 0 0 0 0.0644 -1.0127 24.863 19.662 0 0 0 -24.863 -19.661z" fill="#502d16"/>
   <path d="m329.16 991.48 9.7177 36.414h32.362l9.7177-36.414-6.4724 2.8053-6.4724-2.8053-6.4724 2.8053-6.4907-2.8053-6.4724 2.8053-6.4724-2.8053-6.4724 2.8053-6.4724-2.8053zm12.945 5.6106h3.2454v27.998l-3.2454-27.998zm12.945 0h3.2454l-3.2454 27.998v-27.998zm12.963 0h3.227l-6.4724 27.998 3.2454-27.998z" fill="#f4d7d7"/>
  </g>
  <g transform="matrix(1.1773 0 0 1.1773 -105.19 -181.34)">
   <path d="m359.88 974.07c0.29592-2.3056-1.625-4.3823-4.2904-4.6382-2.6654-0.256-5.0661 1.4056-5.362 3.7113-0.0394 0.3068-0.0395 0.6165-4.5e-4 0.9234" fill="#4a0"/>
   <path d="m355.06 973.44a24.863 19.662 0 0 0 -24.863 19.661 24.863 19.662 0 0 0 0.0449 1.0127h49.617a24.863 19.662 0 0 0 0.0644 -1.0127 24.863 19.662 0 0 0 -24.863 -19.661z" fill="#fea"/>
   <path d="m329.16 991.48 9.7177 36.414h32.362l9.7177-36.414-6.4724 2.8053-6.4724-2.8053-6.4724 2.8053-6.4907-2.8053-6.4724 2.8053-6.4724-2.8053-6.4724 2.8053-6.4724-2.8053zm12.945 5.6106h3.2454v27.998l-3.2454-27.998zm12.945 0h3.2454l-3.2454 27.998v-27.998zm12.963 0h3.227l-6.4724 27.998 3.2454-27.998z" fill="#e3e2db"/>
  </g>
 </g>
</svg>
